<svg width="122" height="146" viewBox="0 0 122 146" fill="none" xmlns="http://www.w3.org/2000/svg">
<path fill-rule="evenodd" clip-rule="evenodd" d="M91.4815 18.1472L60.9916 0C52.0906 11.0752 45.4012 23.696 41.1396 37.1062C64.595 42.1546 85.3208 54.8643 100.728 72.6004C109.866 83.1194 117.127 95.3956 121.982 108.873V36.2947H121.972L91.4924 18.1472H91.4815Z" fill="black"/>
<path fill-rule="evenodd" clip-rule="evenodd" d="M41.1066 108.035C27.7064 110.937 13.7561 111.282 0 108.869L30.5008 127.016L61.0016 145.164L91.4916 127.016L121.992 108.869C117.137 95.3809 109.876 83.105 100.738 72.5967C84.7701 91.0111 63.7203 103.153 41.1282 108.035H41.1066Z" fill="black"/>
<path fill-rule="evenodd" clip-rule="evenodd" d="M0 36.3041V108.893C13.7561 111.306 27.7064 110.95 41.1066 108.059C33.6188 84.5965 33.9426 59.7442 41.1282 37.1269C45.4005 23.7165 52.079 11.0957 60.98 0.0205078L30.4792 18.1678L0 36.3041Z" fill="black"/>
</svg>
