<svg width="1352" height="146" viewBox="0 0 1352 146" fill="none" xmlns="http://www.w3.org/2000/svg">
<path d="M221.579 76.9674L231.236 67.0494H203.311V76.9674H221.579ZM237.757 36.2852H185.597V108.869H237.757V98.0666H196.975V47.0876H237.757V36.2852Z" fill="white"/>
<path d="M804.635 76.9674L814.289 67.0494H786.364V76.9674H804.635ZM820.809 36.2852H768.652V108.869H820.809V98.0666H780.031V47.0876H820.809V36.2852Z" fill="white"/>
<path d="M272.633 33.6807H284.897L285.918 34.2054L304.827 59.3976L323.735 34.2054L324.757 33.6807H337.022L337.531 34.2054L311.471 68.3201L340.597 106.633L340.089 107.158H327.824L326.8 106.633L304.827 77.2424L282.853 106.633L281.831 107.158H269.566L269.055 106.633L298.184 68.3201L272.12 34.2054L272.633 33.6807Z" fill="white"/>
<path d="M372.754 33.6807H428.456L428.968 34.2054L388.596 96.6614H428.968L429.476 97.2913V106.633L428.968 107.158H369.688L369.176 106.633L409.548 44.1775H372.754L372.243 43.6525V34.2054L372.754 33.6807Z" fill="white"/>
<path d="M503.622 32.1152C524.473 32.1152 541.44 49.3298 541.44 70.4284C541.44 91.527 524.473 108.742 503.622 108.742C482.771 108.742 465.806 91.527 465.806 70.4284C465.806 49.3298 482.771 32.1152 503.622 32.1152ZM503.622 43.1368C489.211 43.1368 477.559 55.313 477.559 70.4284C477.559 85.5438 489.211 97.7204 503.622 97.7204C518.035 97.7204 529.684 85.5438 529.684 70.4284C529.684 55.313 518.035 43.1368 503.622 43.1368Z" fill="white"/>
<path d="M1122.01 32.1152C1142.87 32.1152 1159.83 49.3298 1159.83 70.4284C1159.83 91.527 1142.87 108.742 1122.01 108.742C1101.16 108.742 1084.2 91.527 1084.2 70.4284C1084.2 49.3298 1101.16 32.1152 1122.01 32.1152ZM1122.01 43.1368C1107.6 43.1368 1095.95 55.313 1095.95 70.4284C1095.95 85.5438 1107.6 97.7204 1122.01 97.7204C1136.42 97.7204 1148.08 85.5438 1148.08 70.4284C1148.08 55.313 1136.42 43.1368 1122.01 43.1368Z" fill="white"/>
<path d="M1294.25 33.6807H1303.45L1303.96 34.2054V59.3976L1333.09 34.2054L1334.11 33.6807H1347.4L1347.91 34.2054L1311.63 65.1711L1352 106.633L1351.49 107.158H1338.2L1337.18 106.633L1303.96 71.9938V106.633L1303.45 107.158H1294.25L1293.74 106.633V34.2054L1294.25 33.6807Z" fill="white"/>
<path d="M860.554 33.6807H916.768L917.281 34.2054V43.6525L916.768 44.1775H893.773V106.633L893.262 107.158H884.064L883.552 106.633V44.1775H860.554L860.046 43.6525V34.2054L860.554 33.6807Z" fill="white"/>
<path d="M952.742 33.6807H962.964L963.475 34.2054L979.826 89.8386L995.668 35.2552L996.18 34.7304H1006.4L1006.91 35.2552L1022.75 89.8386L1039.11 34.2054L1039.62 33.6807H1049.84L1050.35 34.2054L1028.38 106.633L1027.87 107.158H1018.16L1017.64 106.633L1001.29 52.5748L984.939 106.633L984.428 107.158H974.717L974.206 106.633L952.231 34.2054L952.742 33.6807Z" fill="white"/>
<path d="M706.968 95.2516L661.394 36.2852H650.848V108.869H661.394V49.9659L706.968 108.869H717.453V36.2852H706.968V95.2516Z" fill="white"/>
<path d="M1247.44 75.7107C1248.32 74.9938 1249.08 74.2122 1249.72 73.495C1253.21 69.4548 1255.11 64.0461 1255.11 58.3765C1255.11 47.3633 1247.69 36.2852 1233.41 36.2852H1192.68V111.031H1203.53V45.5388H1233.41C1242.17 45.5388 1246.04 51.9902 1246.04 58.3113C1246.04 61.7 1244.9 64.9584 1242.93 67.2391C1240.84 69.6502 1237.92 71.0189 1234.24 71.1492H1222.94H1206.64V80.4028H1228.34L1246.17 110.901H1257.46L1239.25 79.6859C1242.8 78.8387 1245.47 77.2748 1247.44 75.5805V75.7107Z" fill="white"/>
<path opacity="0.1" fill-rule="evenodd" clip-rule="evenodd" d="M56.822 109.939C50.8448 109.939 45.0617 109.105 39.5703 107.537C40.2174 114.487 41.5123 121.381 43.4543 128.13C63.5221 123.16 81.7881 112.341 95.9974 96.9066L95.695 96.584C84.8627 104.968 71.4087 109.939 56.8113 109.939H56.822Z" fill="white"/>
<path opacity="0.3" fill-rule="evenodd" clip-rule="evenodd" d="M51.7236 13.423C51.7893 13.3087 51.8653 13.1944 51.9306 13.0801L51.7236 13.423Z" fill="white"/>
<path fill-rule="evenodd" clip-rule="evenodd" d="M91.4815 18.1472L60.9915 0C52.0905 11.0752 45.4012 23.696 41.1396 37.1062C64.595 42.1546 85.3208 54.8643 100.728 72.6004C109.866 83.1194 117.127 95.3956 121.982 108.873V36.2947H121.972L91.4923 18.1472H91.4815Z" fill="white"/>
<path fill-rule="evenodd" clip-rule="evenodd" d="M41.1066 108.035C27.7064 110.937 13.7561 111.282 0 108.869L30.5008 127.016L61.0016 145.164L91.4916 127.016L121.992 108.869C117.137 95.3809 109.876 83.105 100.738 72.5967C84.7701 91.0111 63.7203 103.153 41.1282 108.035H41.1066Z" fill="white"/>
<path fill-rule="evenodd" clip-rule="evenodd" d="M0 36.3041L0 108.893C13.7561 111.306 27.7064 110.95 41.1066 108.059C33.6188 84.5965 33.9426 59.7442 41.1282 37.1269C45.4005 23.7165 52.079 11.0957 60.98 0.0205078L30.4792 18.1678L0 36.3041Z" fill="white"/>
<path opacity="0.3" fill-rule="evenodd" clip-rule="evenodd" d="M16.8212 63.2041C12.8293 78.538 11.9446 94.6948 14.275 110.396C23.3164 110.74 32.3252 109.94 41.1074 108.039C33.6199 84.576 33.9434 59.7238 41.1293 37.1062C45.4018 23.696 52.0801 11.0751 60.9813 0C38.5399 14.9337 23.4458 37.74 16.8212 63.2041Z" fill="white"/>
</svg>
